<svg version="1.1" viewBox="0.0 0.0 520.0 520.0" fill="none" stroke="none" stroke-linecap="square" stroke-miterlimit="10" xmlns:xlink="http://www.w3.org/1999/xlink" xmlns="http://www.w3.org/2000/svg">
  <clipPath id="p.0">
    <path d="m0 0l520.0 0l0 520.0l-520.0 0l0 -520.0z" clip-rule="nonzero" />
  </clipPath>
  <g clip-path="url(#p.0)">
    <path fill="#ff9800" fill-opacity="0.0" d="m0 0l520.0 0l0 520.0l-520.0 0z" fill-rule="evenodd" />
    <path fill="#ffc107" d="m3.6981628 259.9895l0 0c0 -30.188675 24.472752 -54.661423 54.66142 -54.661423l0 0c14.497108 0 28.400452 5.758957 38.65146 16.009964c10.251007 10.251007 16.009956 24.154343 16.009956 38.65146l0 0c0 30.18866 -24.472748 54.661407 -54.661415 54.661407l0 0c-30.188667 0 -54.66142 -24.472748 -54.66142 -54.661407z" fill-rule="evenodd" />
    <path fill="#ff9800" d="m60.795277 259.9895l0 0c0 -30.188675 24.472752 -54.661423 54.66142 -54.661423l0 0c14.497101 0 28.400452 5.758957 38.65146 16.009964c10.251007 10.251007 16.009949 24.154343 16.009949 38.65146l0 0c0 30.18866 -24.472748 54.661407 -54.661407 54.661407l0 0c-30.188667 0 -54.66142 -24.472748 -54.66142 -54.661407z" fill-rule="evenodd" />
    <path fill="#4e342e" d="m121.020996 259.99475l0 0c0 -30.188675 24.472748 -54.661423 54.661423 -54.661423l0 0c14.497101 0 28.400452 5.758957 38.65146 16.009964c10.251007 10.251007 16.009949 24.154343 16.009949 38.65146l0 0c0 30.18866 -24.472748 54.661407 -54.661407 54.661407l0 0c-30.188675 0 -54.661423 -24.472748 -54.661423 -54.661407z" fill-rule="evenodd" />
    <path fill="#4e342e" d="m200.12335 259.9895l0 0c0 -82.84271 67.15729 -150.0 150.0 -150.0l0 0c39.78247 0 77.93558 15.803528 106.06601 43.933975c28.130463 28.130463 43.93399 66.283554 43.93399 106.066025l0 0c0 82.84271 -67.15729 150.0 -150.0 150.0l0 0c-82.84271 0 -150.0 -67.15729 -150.0 -150.0z" fill-rule="evenodd" />
    <path fill="#ff9800" fill-opacity="0.0" d="m211.34645 -40.56693l277.57483 0l0 601.1339l-277.57483 0z" fill-rule="evenodd" />
    <path fill="#ff9800" d="m473.70584 122.90493l-20.625 306.32812l-54.140625 0l-37.96875 -108.984375l-10.546875 -34.921875l-11.015625 37.734375l-35.15625 106.171875l-52.26564 0l-21.09375 -306.32812l39.375015 0l11.953125 208.35938l3.515625 57.1875l14.765625 -48.515625l37.03125 -113.671875l28.828125 0l42.65625 121.875l14.296875 40.3125l0.9375 -42.1875l12.1875 -223.35938l37.265625 0z" fill-rule="nonzero" />
  </g>
</svg>